<svg width="19" height="18" fill="none" xmlns="http://www.w3.org/2000/svg"><path fill-rule="evenodd" clip-rule="evenodd" d="M3.664 1.802c-.16 0-.314.018-.46.052a3.91 3.91 0 00-.768-1.14C1.925.202 1.117 0 0 0v1.8c.683 0 1.075.098 1.164.186.34.34.636 1.032.636 1.614l.01.127.88 6.173C1.216 9.977.073 11.123.002 12.555L0 13.5c.087 1.48 1.226 2.618 2.649 2.698h.204a2.701 2.701 0 005.093.002h2.108a2.701 2.701 0 100-1.8H7.946a2.701 2.701 0 00-5.092 0H2.7c-.459-.027-.87-.439-.902-.954L1.8 12.6c.024-.467.433-.876.945-.901H4.52l.013.001h9.071l.133-.042a2.362 2.362 0 001.487-1.396l.095-.187.308-.61a675.1 675.1 0 00.948-1.884c.76-1.514 1.24-2.477 1.345-2.713.544-1.214-.558-2.148-1.684-2.168L3.664 1.802zM13.292 9.9h-8.69a.153.153 0 01-.11-.126l-.883-6.173 12.495.894a314.03 314.03 0 01-1.136 2.278l-.013.026-.934 1.855-.308.61-.116.23-.044.102a.563.563 0 01-.26.304zm-.692 6.3a.9.9 0 100-1.8.9.9 0 000 1.8zm-6.3-.9a.9.9 0 11-1.8 0 .9.9 0 011.8 0z" fill="#000"/></svg>